<svg xmlns="http://www.w3.org/2000/svg" viewBox="0 0 80 90" fill="none">
  <defs>
    <linearGradient id="cover" x1="40" y1="0" x2="40" y2="90" gradientUnits="userSpaceOnUse">
      <stop stop-color="#7C3AED"/><stop offset="1" stop-color="#4C1D95"/>
    </linearGradient>
    <linearGradient id="pages" x1="40" y1="10" x2="40" y2="80" gradientUnits="userSpaceOnUse">
      <stop stop-color="#FEF3C7"/><stop offset="1" stop-color="#FDE68A"/>
    </linearGradient>
    <filter id="bookGlow"><feGaussianBlur stdDeviation="2"/><feMerge><feMergeNode/><feMergeNode in="SourceGraphic"/></feMerge></filter>
  </defs>
  <ellipse cx="40" cy="86" rx="30" ry="4" fill="#000" opacity="0.2"/>
  <!-- Back cover -->
  <path d="M8 12 Q40 8 72 12 L72 78 Q40 84 8 78 Z" fill="url(#cover)" filter="url(#bookGlow)"/>
  <!-- Pages -->
  <path d="M14 14 Q40 10 66 14 L66 76 Q40 80 14 76 Z" fill="url(#pages)"/>
  <!-- Spine -->
  <path d="M8 12 L14 14 L14 76 L8 78 Z" fill="#5B21B6"/>
  <!-- Gold emblem -->
  <circle cx="40" cy="42" r="12" stroke="#F59E0B" stroke-width="1.5" fill="none" opacity="0.8"/>
  <path d="M40 34 L43 42 L40 50 L37 42 Z" fill="#F59E0B" opacity="0.7"/>
  <!-- Corner ornaments -->
  <path d="M20 20 L24 20 L24 24" stroke="#F59E0B" stroke-width="1" fill="none" opacity="0.5"/>
  <path d="M60 20 L56 20 L56 24" stroke="#F59E0B" stroke-width="1" fill="none" opacity="0.5"/>
  <!-- Magic sparkles -->
  <circle cx="18" cy="30" r="1.5" fill="#FDE68A" opacity="0.8"/>
  <circle cx="62" cy="55" r="1" fill="#FDE68A" opacity="0.6"/>
</svg>
