<svg xmlns="http://www.w3.org/2000/svg" viewBox="0 0 90 100" fill="none">
  <defs>
    <linearGradient id="mug" x1="45" y1="20" x2="45" y2="90">
      <stop stop-color="#374151"/><stop offset="1" stop-color="#111827"/>
    </linearGradient>
    <filter id="mugSh"><feDropShadow dx="0" dy="5" stdDeviation="6" flood-opacity="0.35"/></filter>
  </defs>
  <g filter="url(#mugSh)">
    <path d="M18 30 L18 82 Q18 92 45 92 Q72 92 72 82 L72 30 Z" fill="url(#mug)" stroke="#000" stroke-width="3"/>
    <path d="M72 42 Q88 42 88 58 Q88 72 72 72" fill="none" stroke="#000" stroke-width="3"/>
    <path d="M72 46 Q84 46 84 58 Q84 68 72 68" fill="none" stroke="#4B5563" stroke-width="2"/>
    <ellipse cx="45" cy="30" rx="27" ry="8" fill="#1F2937" stroke="#000" stroke-width="2.5"/>
    <ellipse cx="45" cy="32" rx="22" ry="5" fill="#422006" opacity="0.8"/>
    <text x="45" y="58" text-anchor="middle" fill="#4ADE80" font-size="7" font-weight="bold">CODE.</text>
    <text x="45" y="68" text-anchor="middle" fill="#FFF" font-size="7" font-weight="bold">BUILD.</text>
    <text x="45" y="78" text-anchor="middle" fill="#FFF" font-size="7" font-weight="bold">REPEAT.</text>
    <!-- Steam wisps (static base) -->
    <path d="M38 18 Q34 8 40 2" stroke="#E2E8F0" stroke-width="3" fill="none" opacity="0.5" stroke-linecap="round"/>
    <path d="M45 16 Q45 6 45 0" stroke="#E2E8F0" stroke-width="3.5" fill="none" opacity="0.6" stroke-linecap="round"/>
    <path d="M52 18 Q56 8 50 2" stroke="#E2E8F0" stroke-width="3" fill="none" opacity="0.5" stroke-linecap="round"/>
  </g>
</svg>
